<?xml version="1.0" encoding="utf-8"?>
<!-- Generator: Adobe Illustrator 21.0.2, SVG Export Plug-In . SVG Version: 6.00 Build 0)  -->
<svg xmlns="http://www.w3.org/2000/svg" xmlns:xlink="http://www.w3.org/1999/xlink" version="1.1" id="Layer_1" x="0px" y="0px" viewBox="0 0 100 100" enable-background="new 0 0 100 100" xml:space="preserve" width="512" height="512">
<g>
	<circle fill="#E05B49" cx="50" cy="50" r="48"/>
	<path opacity="0.1" d="M96.7004395,61.0794449l-25.0904541-25.090332l-0.5198975-0.5200195   c-2.9001465-2.7799072-6.3901367-3.7099609-9.7301025-2.7598877C59.8400879,33.1392593,58.5,33.9291763,57.4000244,35.0191422   c-0.6300049,0.6201172-1.460083,1-2.3499756,1H44.9499512c-0.8898926,0-1.7199707-0.3798828-2.3499756-1   C41.5,33.9291763,40.1599121,33.1392593,38.6400146,32.7092056c-5.8599854-1.6700439-12.1700439,2.4599609-14.9100342,12.0599365   c-2.2752686,8.0078125-1.3427734,17.2746582,2.4411621,21.0874023L26.1699219,65.85923l0.170166,0.1799316l0.0998535,0.0900879   l31.25,31.2497559C76.8933105,94.2857437,92.2741699,79.8030777,96.7004395,61.0794449z"/>
	<g>
		<path fill="#3A556A" d="M76.2669144,44.7661285c-2.7358398-9.5939941-9.052002-13.7309551-14.9116249-12.0603027    c-1.5195313,0.4333496-2.8531494,1.2214355-3.9536133,2.3115234c-0.6309814,0.625-1.4643555,1.0026855-2.352417,1.0026855    H44.9507484c-0.8881836,0-1.7216797-0.3779297-2.3527832-1.0029297c-1.1003418-1.0898438-2.4338379-1.8779297-3.9532471-2.3112793    c-5.8597412-1.6706524-12.1759033,2.4663086-14.911499,12.0603027    c-2.7359619,9.5939941-0.8553467,21.0117188,5.0043945,22.6826172c4.4194336,1.2602539,9.8381348-3.3859863,13.4091797-9.8613281    c0.3790283-0.6875,1.1137695-1.1025391,1.8986816-1.1025391h11.9091797c0.7849121,0,1.5196533,0.4150391,1.8986816,1.1025391    c3.5710449,6.4753418,8.9896278,11.121582,13.4091835,9.8613281    C77.122139,65.7778473,79.0026321,54.3601227,76.2669144,44.7661285z"/>
		<g>
			<circle fill="#FCD462" cx="64.1177673" cy="40.3962975" r="2.752178"/>
			<circle fill="#44C4A1" cx="64.1177673" cy="50.3224602" r="2.752178"/>
		</g>
		<g>
			<circle fill="#27A2DB" cx="69.0808487" cy="45.3593788" r="2.752178"/>
			<circle fill="#E56353" cx="59.1546822" cy="45.3593788" r="2.752178"/>
		</g>
		<g>
			<path fill="#EBF0F3" d="M40.7969894,43.7463531h-4.0776367v-4.0778809c0-0.4267578-0.3460693-0.7729492-0.7729492-0.7729492     h-3.3581543c-0.4268799,0-0.7729473,0.3461914-0.7729473,0.7729492v4.0778809h-4.0776367     c-0.4268799,0-0.7729492,0.3459473-0.7729492,0.7729492v3.3581543c0,0.4267578,0.3460693,0.7729492,0.7729492,0.7729492     h4.0776367v4.0776367c0,0.4267578,0.3460674,0.7729492,0.7729473,0.7729492h3.3581543     c0.4268799,0,0.7729492-0.3461914,0.7729492-0.7729492v-4.0776367h4.0776367     c0.4268799,0,0.7729492-0.3461914,0.7729492-0.7729492v-3.3581543     C41.5699387,44.0923004,41.2238693,43.7463531,40.7969894,43.7463531z"/>
			<g>
				<polygon fill="#E1E6E9" points="34.2671432,39.6262283 33.0739059,40.8195877 35.4607468,40.8198318     "/>
				<polygon fill="#E1E6E9" points="34.2675095,52.7702904 35.4607468,51.576931 33.0739059,51.5766869     "/>
			</g>
			<g>
				<polygon fill="#E1E6E9" points="40.8393593,46.1980743 39.6459999,45.004837 39.6457558,47.3916779     "/>
				<polygon fill="#E1E6E9" points="27.6952972,46.1984406 28.8886566,47.3916779 28.8889008,45.004837     "/>
			</g>
		</g>
		<g>
			<rect x="44.3725319" y="38.4611893" fill="#FCD462" width="4.6503921" height="1.9351082"/>
			<rect x="50.9770775" y="38.4611893" fill="#44C4A1" width="4.6503921" height="1.9351082"/>
		</g>
	</g>
</g>
</svg>
