<svg height="512pt" viewBox="0 0 512.00114 512" width="512pt" xmlns="http://www.w3.org/2000/svg"><path d="m489.863281 511.753906c.0625.152344.105469.246094.105469.246094h-467.9375s.042969-.09375.105469-.246094c-12.953125-1.78125-22.820313-13.21875-22.0976565-26.816406.9140625-17.347656 18.3671875-28.070312 33.6445315-23.003906 3.152344 1.039062 6.542968-1.039063 7.054687-4.316406 1.363281-8.644532 8.46875-15.585938 17.496094-16.410157.945313-.082031 1.566406-1.019531 1.265625-1.917969-9.507812-28.089843 28.578125-47.871093 46.257812-24.835937 1.039063 1.371094 2.964844 1.710937 4.4375.832031 4.296876-2.574218 9.304688-3.933594 14.515626-3.757812 1.980468.0625 3.597656-1.464844 3.636718-3.429688.402344-17.957031 18.441406-30.144531 35.015625-24.589844 2.453125.824219 5.164063.007813 6.71875-2.050781 7.519531-10.003906 21.355469-13.15625 32.511719-7.222656 11.449219 6.078125 25.582031-.441406 28.835938-12.992187 11.21875-43.152344 7.664062-143.742188 7.664062-143.742188h33.8125s-3.554688 100.589844 7.664062 143.742188c3.253907 12.550781 17.390626 19.070312 28.835938 12.992187 11.15625-5.933594 24.992188-2.78125 32.511719 7.222656 1.558593 2.058594 4.265625 2.875 6.71875 2.050781 16.574219-5.554687 34.613281 6.632813 35.015625 24.589844.039062 1.96875 1.660156 3.492188 3.636718 3.429688 5.214844-.175782 10.21875 1.183594 14.515626 3.757812 1.472656.878906 3.402343.539063 4.441406-.832031 17.675781-23.035156 55.765625-3.257813 46.253906 24.835937-.296875.898438.320312 1.835938 1.269531 1.917969 9.023438.824219 16.132813 7.765625 17.492188 16.410157.515625 3.277343 3.902343 5.355468 7.054687 4.316406 15.28125-5.066406 32.730469 5.65625 33.648438 23.003906.71875 13.597656-9.148438 25.035156-22.101563 26.816406zm0 0" fill="#e6e6e6"/><g fill="#d4d4d4"><path d="m511.964844 484.9375c-.917969-17.347656-18.371094-28.070312-33.648438-23.003906-3.152344 1.039062-6.542968-1.039063-7.054687-4.316406-1.363281-8.644532-8.46875-15.585938-17.496094-16.410157-.945313-.082031-1.566406-1.019531-1.265625-1.917969 8.667969-25.605468-22.207031-44.300781-41.128906-29.960937 9.003906 6.082031 14.558594 17.15625 10.222656 29.960937-.296875.898438.320312 1.835938 1.269531 1.917969 9.023438.824219 16.132813 7.765625 17.492188 16.410157.515625 3.277343 3.902343 5.355468 7.058593 4.316406 15.277344-5.066406 32.726563 5.65625 33.644532 23.003906.71875 13.597656-9.148438 25.03125-22.097656 26.816406.0625.152344.101562.246094.101562.246094h30.90625s-.042969-.09375-.105469-.246094c12.953125-1.78125 22.820313-13.21875 22.101563-26.816406zm0 0"/><path d="m311.011719 381.457031c1.558593 2.058594 4.265625 2.871094 6.71875 2.046875 16.574219-5.550781 34.613281 6.636719 35.015625 24.589844.042968 1.96875 1.660156 3.492188 3.636718 3.433594 5.214844-.175782 10.21875 1.183594 14.515626 3.757812 1.472656.875 3.402343.535156 4.441406-.832031 2.429687-3.167969 5.246094-5.519531 8.269531-7.160156-.914063-17.511719-18.644531-29.257813-34.972656-23.789063-2.453125.824219-5.160157.011719-6.71875-2.050781-7.519531-10-21.355469-13.152344-32.511719-7.21875-1.371094.726563-2.78125 1.269531-4.207031 1.644531 2.175781 1.519532 4.15625 3.371094 5.8125 5.578125zm0 0"/><path d="m249.664062 361.242188c3.257813 12.550781 17.390626 19.070312 28.835938 12.992187 2.691406-1.433594 5.542969-2.324219 8.421875-2.726563-2.984375-2.597656-5.269531-6.09375-6.351563-10.261718-11.21875-43.15625-7.664062-143.746094-7.664062-143.746094h-30.90625s-3.554688 100.589844 7.664062 143.742188zm0 0"/></g><path d="m206.214844 226.496094h-40.777344v-24.113282c0-20.5625 16.667969-37.234374 37.234375-37.234374h33.246094v31.644531c0 16.40625-13.300781 29.703125-29.703125 29.703125zm0 0" fill="#ffca28"/><path d="m306.605469 226.496094h39.964843v-24.386719c0-20.414063-16.546874-36.960937-36.960937-36.960937h-32.484375v31.863281c0 16.285156 13.195312 29.484375 29.480469 29.484375zm0 0" fill="#ffca28"/><path d="m204.550781 165.148438c-.921875 0-1.832031.039062-2.738281.097656v32.976562c0 15.613282-13.96875 28.273438-31.199219 28.273438h34.105469c17.226562 0 31.199219-12.65625 31.199219-28.273438v-33.074218zm0 0" fill="#ffb300"/><path d="m308.03125 165.148438h-30.90625v.097656c20.023438 1.273437 35.84375 16.609375 35.84375 35.347656v25.902344h33.601562v-25.902344c0-19.574219-17.253906-35.445312-38.539062-35.445312zm0 0" fill="#ffb300"/><path d="m278.578125 239.324219h-45.148437c-2.277344 0-4.121094-1.847657-4.121094-4.121094v-90.589844h53.390625v90.589844c0 2.273437-1.84375 4.121094-4.121094 4.121094zm0 0" fill="#42a5f5"/><path d="m251.792969 144.613281v90.589844c0 2.273437-1.84375 4.121094-4.121094 4.121094h30.90625c2.277344 0 4.121094-1.847657 4.121094-4.121094v-90.589844zm0 0" fill="#2196f3"/><path d="m288.289062 165.148438h-64.566406c-8.132812 0-14.851562-6.578126-15.304687-14.984376l-3.863281-71.867187c-1.375-25.574219 20.710937-78.296875 51.449218-78.296875 30.738282 0 52.824219 52.722656 51.449219 78.296875l-3.863281 71.867187c-.453125 8.40625-7.167969 14.984376-15.300782 14.984376zm0 0" fill="#ff5622"/><path d="m256.003906 0c-5.449218 0-10.628906 1.664062-15.453125 4.535156 22.378907 13.316406 37.125 52.722656 35.996094 73.761719l-3.863281 71.867187c-.453125 8.40625-7.167969 14.984376-15.300782 14.984376h30.902344c8.136719 0 14.851563-6.578126 15.304688-14.984376l3.863281-71.867187c1.375-25.574219-20.710937-78.296875-51.449219-78.296875zm0 0" fill="#e8491d"/><path d="m277.125 95.421875c0 11.382813-9.226562 20.605469-20.605469 20.605469-11.378906 0-20.605469-9.222656-20.605469-20.605469 0-11.378906 9.226563-20.601563 20.605469-20.601563 11.378907 0 20.605469 9.222657 20.605469 20.601563zm0 0" fill="#bdf9ff"/><path d="m256.519531 67.320312c-15.496093 0-28.105469 12.605469-28.105469 28.105469 0 15.496094 12.609376 28.101563 28.105469 28.101563 15.496094 0 28.105469-12.605469 28.105469-28.101563 0-15.5-12.609375-28.105469-28.105469-28.105469zm0 41.207032c-7.226562 0-13.105469-5.878906-13.105469-13.105469 0-7.222656 5.878907-13.101563 13.105469-13.101563 7.226563 0 13.105469 5.878907 13.105469 13.101563 0 7.226563-5.878906 13.105469-13.105469 13.105469zm0 0" fill="#ffca28"/></svg>