<svg width="2074" height="1678" viewBox="0 0 2074 1678" fill="none" xmlns="http://www.w3.org/2000/svg">
<rect y="52" width="514" height="69" fill="#9DD7F0"/>
<circle cx="390" cy="42" r="42" fill="#07A9F0"/>
<circle cx="514" cy="121" r="30" fill="#07A9F0"/>
<path d="M455.611 1298.04L207.041 1546.61L116.058 1207.06L455.611 1298.04Z" fill="#9DD7F0"/>
<path d="M284.493 88.7588L319.833 147.341L251.429 148.655L284.493 88.7588Z" fill="#07A9F0"/>
<path d="M450.493 1077.76L485.833 1136.34L417.429 1137.65L450.493 1077.76Z" fill="#07A9F0"/>
<circle cx="474" cy="1015" r="42" fill="#9DD7F0"/>
<circle cx="340" cy="1085" r="30" fill="#07A9F0"/>
<path d="M211.755 1447.56C211.755 1447.56 203.769 1468.2 214.991 1488.98C226.213 1509.77 249.328 1520.75 267.828 1530.14C286.329 1539.53 305.539 1534.95 314.668 1519.58C323.796 1504.2 311.277 1493.22 311.259 1471.29C311.242 1449.36 314.539 1443.56 302.667 1425.03C290.794 1406.5 261.69 1402.4 239.681 1416.14C217.672 1429.88 211.755 1447.56 211.755 1447.56Z" fill="#07A9F0"/>
<path d="M1641 574.109H2074V687.109H1641V574.109Z" fill="#07A9F0"/>
<circle cx="1683" cy="770.109" r="42" fill="#9DD7F0"/>
<path d="M1820.92 559.415L1771.26 606.475L1755.33 539.938L1820.92 559.415Z" fill="#9DD7F0"/>
<path d="M1829.5 1599L1863.71 1658.25H1795.29L1829.5 1599Z" fill="#07A9F0"/>
<rect x="1755" y="1644" width="150" height="30" fill="#9DD7F0"/>
<circle cx="1683" cy="1596" r="42" fill="#07A9F0"/>
</svg>
